<svg xmlns="http://www.w3.org/2000/svg" xmlns:xlink="http://www.w3.org/1999/xlink" width="57" zoomAndPan="magnify" viewBox="0 0 42 42.75" height="57" preserveAspectRatio="xMidYMid meet" version="1.0"><defs><clipPath id="b6787f3b9b"><path d="M 0.121094 0 L 41.875 0 L 41.875 41.984375 L 0.121094 41.984375 Z M 0.121094 0 " clip-rule="nonzero"/></clipPath><clipPath id="3361f93154"><path d="M 8 12 L 34 12 L 34 33.824219 L 8 33.824219 Z M 8 12 " clip-rule="nonzero"/></clipPath><clipPath id="d78b10ad7b"><path d="M 19 8.042969 L 23 8.042969 L 23 12 L 19 12 Z M 19 8.042969 " clip-rule="nonzero"/></clipPath><clipPath id="d768156e46"><path d="M 7.050781 18 L 10 18 L 10 24 L 7.050781 24 Z M 7.050781 18 " clip-rule="nonzero"/></clipPath></defs><g clip-path="url(#b6787f3b9b)"><path fill="#ffffff" d="M 0.121094 0 L 42.109375 0 L 42.109375 41.984375 L 0.121094 41.984375 Z M 0.121094 0 " fill-opacity="1" fill-rule="nonzero"/><path fill="#ffffff" d="M 0.121094 0 L 42.109375 0 L 42.109375 41.984375 L 0.121094 41.984375 Z M 0.121094 0 " fill-opacity="1" fill-rule="nonzero"/></g><g clip-path="url(#3361f93154)"><path fill="#005dff" d="M 16.9375 12.976562 L 25.027344 12.976562 C 27.25 12.976562 29.273438 13.886719 30.734375 15.351562 C 32.199219 16.8125 33.109375 18.835938 33.109375 21.058594 C 33.109375 23.28125 32.199219 25.304688 30.734375 26.765625 C 29.273438 28.230469 27.25 29.140625 25.027344 29.140625 L 24.144531 29.140625 L 19.65625 33.320312 C 19.25 33.699219 18.617188 33.675781 18.238281 33.269531 C 18.058594 33.078125 17.972656 32.832031 17.972656 32.585938 L 17.96875 32.585938 L 17.96875 29.140625 L 16.9375 29.140625 C 14.714844 29.140625 12.695312 28.230469 11.230469 26.765625 C 9.765625 25.304688 8.859375 23.28125 8.859375 21.058594 C 8.859375 18.835938 9.765625 16.8125 11.230469 15.351562 C 12.695312 13.886719 14.714844 12.976562 16.9375 12.976562 Z M 25.027344 14.988281 L 16.9375 14.988281 C 15.269531 14.988281 13.753906 15.671875 12.652344 16.769531 C 11.550781 17.871094 10.867188 19.390625 10.867188 21.058594 C 10.867188 22.726562 11.550781 24.246094 12.652344 25.34375 C 13.753906 26.445312 15.269531 27.128906 16.9375 27.128906 L 18.972656 27.128906 C 19.527344 27.128906 19.980469 27.578125 19.980469 28.136719 L 19.980469 30.28125 L 23.019531 27.445312 C 23.203125 27.25 23.464844 27.128906 23.753906 27.128906 L 25.027344 27.128906 C 26.695312 27.128906 28.214844 26.445312 29.316406 25.34375 C 30.414062 24.246094 31.097656 22.726562 31.097656 21.058594 C 31.097656 19.390625 30.414062 17.871094 29.316406 16.769531 C 28.214844 15.671875 26.695312 14.988281 25.027344 14.988281 Z M 25.027344 14.988281 " fill-opacity="1" fill-rule="nonzero"/></g><path fill="#005dff" d="M 20.300781 9.9375 L 21.667969 9.9375 L 21.667969 14.085938 L 20.300781 14.085938 Z M 20.300781 9.9375 " fill-opacity="1" fill-rule="evenodd"/><g clip-path="url(#d78b10ad7b)"><path fill="#005dff" d="M 20.984375 8.054688 C 21.972656 8.054688 22.773438 8.855469 22.773438 9.84375 C 22.773438 10.832031 21.972656 11.632812 20.984375 11.632812 C 19.996094 11.632812 19.191406 10.832031 19.191406 9.84375 C 19.191406 8.855469 19.996094 8.054688 20.984375 8.054688 Z M 20.984375 8.054688 " fill-opacity="1" fill-rule="evenodd"/></g><g clip-path="url(#d768156e46)"><path fill="#005dff" d="M 9.441406 23.449219 C 8.121094 23.449219 7.050781 22.378906 7.050781 21.058594 C 7.050781 19.738281 8.121094 18.667969 9.441406 18.667969 Z M 9.441406 23.449219 " fill-opacity="1" fill-rule="evenodd"/></g><path fill="#005dff" d="M 32.558594 23.449219 C 33.878906 23.449219 34.949219 22.378906 34.949219 21.058594 C 34.949219 19.738281 33.878906 18.667969 32.558594 18.667969 Z M 32.558594 23.449219 " fill-opacity="1" fill-rule="evenodd"/><path fill="#005dff" d="M 17.710938 18.199219 C 18.292969 18.199219 18.773438 18.675781 18.773438 19.261719 L 18.773438 22.476562 C 18.773438 23.0625 18.292969 23.539062 17.710938 23.539062 C 17.125 23.539062 16.648438 23.0625 16.648438 22.476562 L 16.648438 19.261719 C 16.648438 18.675781 17.125 18.199219 17.710938 18.199219 Z M 17.710938 18.199219 " fill-opacity="1" fill-rule="evenodd"/><path fill="#005dff" d="M 24.257812 18.199219 C 24.84375 18.199219 25.320312 18.675781 25.320312 19.261719 L 25.320312 22.476562 C 25.320312 23.0625 24.84375 23.539062 24.257812 23.539062 C 23.671875 23.539062 23.195312 23.0625 23.195312 22.476562 L 23.195312 19.261719 C 23.195312 18.675781 23.671875 18.199219 24.257812 18.199219 Z M 24.257812 18.199219 " fill-opacity="1" fill-rule="evenodd"/></svg>